HIERARCHY
ROOT hip
{
	OFFSET 0.000000 0.000000 0.000000 
	CHANNELS 6 Xposition Yposition Zposition Xrotation Zrotation Yrotation
	JOINT abdomen
	{
		OFFSET 0.000000 3.402643 0.000000 
		CHANNELS 3 Xrotation Zrotation Yrotation
		JOINT chest
		{
			OFFSET 0.000000 8.438565 -0.680529 
			CHANNELS 3 Xrotation Zrotation Yrotation
			JOINT neck
			{
				OFFSET 0.000000 9.885400 -0.272212 
				CHANNELS 3 Xrotation Zrotation Yrotation
				JOINT head
				{
					OFFSET 0.000000 3.130431 0.000000 
					CHANNELS 3 Xrotation Zrotation Yrotation
					End Site
					{
						OFFSET 0.000000 3.039250 0.000000 
					}
				}
			}
			JOINT lCollar
			{
				OFFSET 3.238290 6.669187 -0.816635 
				CHANNELS 3 Yrotation Zrotation Xrotation
				JOINT lShldr
				{
					OFFSET 2.515050 0.000000 0.000000 
					CHANNELS 3 Zrotation Yrotation Xrotation
					JOINT lForeArm
					{
						OFFSET 11.517700 0.000000 0.000000 
						CHANNELS 3 Yrotation Zrotation Xrotation
						JOINT lHand
						{
							OFFSET 9.026700 0.000000 0.000000 
							CHANNELS 3 Zrotation Yrotation Xrotation
							End Site
							{
								OFFSET 4.028470 0.000000 0.000000 
							}
						}
					}
				}
			}
			JOINT rCollar
			{
				OFFSET -3.238290 6.669187 -0.816635 
				CHANNELS 3 Yrotation Zrotation Xrotation
				JOINT rShldr
				{
					OFFSET -2.515050 0.000000 0.000000 
					CHANNELS 3 Zrotation Yrotation Xrotation
					JOINT rForeArm
					{
						OFFSET -11.517700 0.000000 0.000000 
						CHANNELS 3 Yrotation Zrotation Xrotation
						JOINT rHand
						{
							OFFSET -9.026700 0.000000 0.000000 
							CHANNELS 3 Zrotation Yrotation Xrotation
							End Site
							{
								OFFSET -4.028470 0.000000 0.000000 
							}
						}
					}
				}
			}
		}
	}
	JOINT lThigh
	{
		OFFSET 4.983750 -1.633274 1.361059 
		CHANNELS 3 Xrotation Zrotation Yrotation
		JOINT lShin
		{
			OFFSET -2.041588 -20.007561 0.000000 
			CHANNELS 3 Xrotation Zrotation Yrotation
			JOINT lFoot
			{
				OFFSET 0.000000 -19.190928 -1.224953 
				CHANNELS 3 Xrotation Yrotation Zrotation
				End Site
				{
					OFFSET 0.000000 -2.449906 4.627600 
				}
			}
		}
	}
	JOINT rThigh
	{
		OFFSET -4.983750 -1.633274 1.361059 
		CHANNELS 3 Xrotation Zrotation Yrotation
		JOINT rShin
		{
			OFFSET 2.041588 -20.007561 0.000000 
			CHANNELS 3 Xrotation Zrotation Yrotation
			JOINT rFoot
			{
				OFFSET 0.000000 -19.190928 -1.224953 
				CHANNELS 3 Xrotation Yrotation Zrotation
				End Site
				{
					OFFSET 0.000000 -2.449906 4.627600 
				}
			}
		}
	}
}
MOTION
Frames: 11
Frame Time: 0.022438
-17.595312 36.113384 -83.137062 -5.577822 -4.554313 -28.026073 30.738859 1.593263 -1.041899 6.416427 3.137219 -5.913564 9.042005 12.926112 1.342961 7.172917 -7.981246 38.634945 -25.377604 -8.863382 -0.467442 -68.418907 -2.535544 -10.207754 -67.674255 5.000000 -7.512252 -18.455969 -19.028534 -45.000000 12.923217 10.630538 -0.564295 69.229897 11.120103 7.153183 84.488419 5.000000 2.380740 13.338350 -18.920650 -13.576291 9.069291 -4.236303 6.937593 40.798637 -4.927693 -4.588380 -35.885563 -8.226306 -0.146182 -16.552896 8.183420 -6.667407 13.525360 8.328221 2.341152 10.946397 -2.349358 10.620333 
-17.647024 36.113113 -84.463699 -6.109601 -5.083673 -28.698069 31.131374 1.505742 -0.733648 6.433068 2.991521 -5.776520 9.510327 13.063901 1.484954 7.465734 -7.599721 38.296074 -25.303139 -9.292495 -0.491132 -68.364281 -2.230792 -10.893804 -67.591316 5.000000 -7.322221 -18.539593 -19.093147 -45.000000 13.069563 10.798508 -0.563528 68.900246 10.819756 6.266797 84.351105 5.000000 2.504874 13.490550 -18.930796 -13.661843 8.680513 -4.090838 7.511337 40.408569 -4.907985 -4.497767 -35.057034 -7.178133 3.360615 -17.430603 8.329302 -6.029143 13.347303 7.956195 2.236460 15.040711 -0.810315 15.377298 
-17.677214 36.227348 -85.773659 -6.611588 -5.629673 -29.551113 31.643328 1.381122 -0.284467 6.443511 2.787322 -5.551108 9.890299 13.238823 1.611714 7.704237 -7.301957 38.018532 -25.249365 -9.828876 -0.518824 -68.170502 -2.012891 -11.398375 -67.489799 5.000000 -7.209055 -18.567614 -19.204041 -45.000000 13.190332 11.149585 -0.581697 68.318130 10.620167 5.587051 84.274712 5.000000 2.602566 13.597636 -18.907688 -13.687691 8.045294 -3.748737 8.116349 40.186516 -4.878069 -4.429266 -33.843693 -5.821095 5.552132 -18.397518 8.183008 -4.858952 14.085657 7.681226 2.327028 17.580601 0.887246 19.758118 
-17.692339 36.440041 -87.058426 -7.020167 -6.278536 -30.614220 32.275696 1.322341 0.296912 6.444085 2.583098 -5.208573 10.109936 13.401273 1.721148 7.884418 -7.075268 37.787930 -25.205921 -10.394510 -0.549738 -67.920158 -1.925421 -11.729251 -67.372322 5.000000 -7.189386 -18.544813 -19.365400 -45.000000 13.272687 11.549420 -0.604317 67.623901 10.582362 5.174153 84.242615 5.000000 2.684668 13.685770 -18.882137 -13.687594 7.312055 -3.133129 8.703757 40.015190 -4.829523 -4.367864 -32.558018 -4.357721 6.637531 -19.423660 7.831872 -3.249514 15.988515 7.651961 2.574184 18.028873 2.300415 23.295507 
-17.702282 36.725185 -88.309578 -7.199103 -7.130146 -31.867058 32.979935 1.445638 1.116459 6.415405 2.437543 -4.807584 10.206816 13.421766 1.799479 7.934495 -6.882695 37.680920 -25.064837 -10.930901 -0.577429 -67.711823 -2.033594 -11.860283 -67.280373 5.000000 -7.289866 -18.523113 -19.567738 -45.000000 13.373432 11.832230 -0.618963 66.939545 10.715406 5.123951 84.184700 5.000000 2.697275 13.736204 -18.875223 -13.676461 6.495378 -2.115123 9.242079 39.804981 -4.789852 -4.268184 -31.207842 -3.111224 6.891204 -20.522692 7.391524 -1.596799 19.334204 8.051102 3.252208 16.108879 2.936331 25.440830 
-17.707346 37.053932 -89.512749 -7.075367 -8.128566 -33.208740 33.639126 1.826670 2.059612 6.379827 2.262741 -4.308626 10.051933 13.394166 1.813266 7.964211 -6.721254 37.656239 -24.942619 -11.379516 -0.602477 -67.516823 -2.219795 -11.810967 -67.241394 5.000000 -7.446507 -18.626692 -19.764887 -45.000000 13.443969 12.027270 -0.629055 66.358192 10.992979 5.451149 84.121658 5.000000 2.750485 13.765749 -18.884634 -13.651683 5.750856 -0.770884 9.661797 39.407085 -4.750695 -4.171081 -29.996880 -1.982559 6.860787 -21.545029 6.832943 -0.384316 23.969995 8.805877 4.398405 12.316586 2.451477 26.017769 
-17.711601 37.400856 -90.654266 -6.650586 -9.160342 -34.524632 34.159317 2.405780 3.080454 6.330416 2.116995 -3.849143 9.814588 13.182007 1.773541 7.912056 -6.532284 37.767216 -24.653500 -11.730637 -0.620619 -67.424782 -2.474267 -11.597640 -67.286049 5.000000 -7.572689 -18.660791 -19.903002 -45.000000 13.533658 12.005481 -0.637333 65.994118 11.355073 6.015758 84.071091 5.000000 2.744053 13.771624 -18.898710 -13.509610 5.066518 0.732305 9.881129 38.634022 -4.713463 -4.071536 -28.728178 -0.736761 6.929809 -22.307123 6.120704 0.110214 29.132851 9.517998 5.924361 7.948849 1.156761 25.351519 
-17.729261 37.759853 -91.734413 -6.043963 -10.119534 -35.747997 34.549366 3.084946 4.031257 6.269359 1.961329 -3.370475 9.563736 12.976748 1.711324 7.770455 -6.408147 37.944290 -24.333538 -11.935478 -0.631201 -67.420166 -2.707112 -11.322940 -67.380478 5.000000 -7.712665 -18.674425 -20.040493 -45.000000 13.639862 11.898193 -0.631782 65.798042 11.740697 6.713797 84.028061 5.000000 2.724324 13.753067 -18.854313 -13.375003 4.479521 2.264972 9.884320 37.543015 -4.713276 -3.927654 -27.357904 0.446974 7.057957 -22.605610 5.263620 -0.033370 34.177486 9.815898 7.374682 3.646202 -0.704450 23.716759 
-17.765709 38.128559 -92.759766 -5.292021 -10.995573 -36.820267 34.815189 3.855381 4.875119 6.196940 1.805548 -2.891482 9.282790 12.799032 1.635344 7.547421 -6.342560 38.165585 -24.061438 -12.052547 -0.637250 -67.429161 -2.901954 -11.041443 -67.493210 5.000000 -7.872370 -18.675106 -20.160795 -45.000000 13.745857 11.771398 -0.625220 65.712036 12.111634 7.487831 84.010475 5.000000 2.707023 13.696968 -18.779135 -13.276633 3.959229 3.755722 9.648657 36.161327 -4.683046 -3.691640 -25.875002 1.667468 7.286458 -22.360403 4.179039 -0.613285 38.692173 9.626667 8.423717 -0.126344 -2.617049 21.636225 
-17.817322 38.504669 -93.741669 -4.373685 -11.802297 -37.709717 34.984234 4.769887 5.682770 6.141012 1.678932 -2.471396 8.945740 12.568891 1.538393 7.382016 -6.232062 38.373001 -23.779922 -12.198870 -0.646867 -67.370766 -3.098119 -10.779920 -67.636971 5.000000 -7.997497 -18.642290 -20.224562 -45.000000 13.832446 11.654359 -0.619161 65.628914 12.483603 8.327608 84.019623 5.000000 2.647916 13.595573 -18.733707 -13.169088 3.473655 5.329516 9.130445 34.557426 -4.688090 -3.468577 -24.277878 3.024843 7.536391 -21.477261 2.987078 -1.489266 42.141323 8.912545 8.777014 -2.568085 -4.532766 19.451733 
-17.887011 38.883553 -94.692558 -3.364269 -12.548681 -38.371723 35.058208 5.788296 6.417948 6.092315 1.552206 -2.090353 8.661541 12.432421 1.475517 7.215962 -6.211856 38.519142 -23.489355 -12.403706 -0.657461 -67.213989 -3.270272 -10.437251 -67.800224 5.000000 -8.137117 -18.644547 -20.225616 -45.000000 13.870297 11.724957 -0.613409 65.380020 12.844943 9.219890 84.053711 5.000000 2.537999 13.603473 -18.719769 -13.065243 2.968296 6.962789 8.298242 32.852169 -4.711051 -3.213942 -22.457367 4.320820 7.551354 -19.974535 1.581307 -2.356262 44.393551 7.936271 8.502550 -3.736662 -6.106301 17.789413 
